<?xml version="1.0" standalone="no"?>
<!DOCTYPE svg PUBLIC "-//W3C//DTD SVG 20010904//EN"
 "http://www.w3.org/TR/2001/REC-SVG-20010904/DTD/svg10.dtd">
<svg version="1.0" xmlns="http://www.w3.org/2000/svg"
 width="700.000000pt" height="700.000000pt" viewBox="0 0 700.000000 700.000000"
 preserveAspectRatio="xMidYMid meet">
<metadata>
Created by potrace 1.14, written by Peter Selinger 2001-2017
</metadata>
<g transform="translate(0.000000,700.000000) scale(0.100000,-0.100000)"
fill="#000000" stroke="none">
<path d="M960 6980 c-241 -45 -441 -150 -615 -323 -172 -171 -280 -376 -330
-628 -14 -69 -13 -305 2 -390 71 -418 371 -771 768 -907 93 -32 131 -41 260
-59 52 -7 58 -13 12 -13 -20 0 -58 -4 -84 -10 -26 -5 -59 -11 -73 -14 -50 -8
-182 -57 -258 -95 -225 -114 -422 -314 -525 -534 -86 -183 -116 -327 -111
-537 3 -154 18 -237 70 -380 94 -264 298 -491 562 -629 73 -37 197 -84 252
-94 14 -3 36 -8 50 -11 33 -9 77 -14 119 -15 44 -1 37 -7 -14 -14 -96 -14
-123 -19 -175 -33 -266 -73 -476 -216 -645 -439 -94 -123 -190 -357 -212 -512
-16 -118 -8 -348 16 -431 5 -18 9 -33 9 -35 -3 -10 40 -134 68 -195 111 -241
337 -469 561 -568 32 -14 72 -32 88 -39 36 -16 171 -52 234 -62 25 -4 114 -7
196 -7 159 1 255 18 389 68 127 48 270 133 356 212 19 18 47 43 61 56 14 13
46 48 71 78 149 182 230 372 264 620 7 54 14 65 14 24 2 -97 48 -270 105 -391
103 -219 274 -404 481 -521 193 -108 376 -153 604 -148 218 5 397 57 579 168
298 182 519 528 548 858 6 70 13 93 13 43 0 -56 41 -236 72 -317 109 -281 315
-506 582 -636 516 -251 1119 -96 1464 375 75 102 162 303 187 430 3 17 8 41
11 55 13 53 12 297 -2 374 -91 522 -501 912 -1024 972 -66 8 -78 14 -24 14 58
0 185 26 272 56 387 133 664 442 763 849 28 114 34 337 12 452 -54 284 -187
513 -409 703 -152 130 -393 234 -590 255 -40 5 -61 11 -53 16 7 4 16 6 20 3
12 -7 164 25 246 52 295 96 546 316 683 597 85 175 114 304 115 502 0 141 -6
191 -34 303 -107 417 -447 745 -871 843 -122 28 -329 34 -450 13 -509 -89
-906 -506 -966 -1014 -3 -30 -7 -56 -9 -58 -1 -1 -5 28 -9 65 -37 359 -273
705 -606 885 -183 99 -359 138 -590 133 -488 -12 -913 -331 -1068 -802 -17
-49 -33 -109 -36 -134 -14 -97 -24 -143 -26 -119 -1 14 -3 32 -5 40 -1 8 -8
43 -14 78 -62 336 -291 644 -600 805 -176 92 -319 128 -521 132 -95 2 -163 -3
-230 -15z m3714 -1273 c42 -398 307 -766 670 -931 89 -41 219 -82 286 -91 108
-15 139 -24 84 -26 -42 -1 -79 -8 -167 -30 -213 -54 -381 -151 -542 -313 -174
-175 -291 -403 -321 -629 -17 -123 -20 -127 -27 -47 -16 160 -78 336 -173 485
-183 289 -514 499 -835 531 -38 4 -68 8 -67 9 2 2 23 6 48 9 107 15 130 20
220 48 333 105 605 357 732 678 45 113 76 244 77 329 1 59 7 50 15 -22z
m-2321 -82 c27 -157 99 -328 194 -465 60 -86 211 -234 298 -291 121 -80 293
-155 400 -174 17 -2 41 -7 55 -10 14 -3 47 -7 74 -10 61 -6 73 -15 20 -15 -60
-1 -112 -10 -204 -37 -227 -65 -425 -191 -583 -371 -98 -113 -192 -295 -233
-452 -27 -104 -31 -128 -33 -184 -1 -38 -8 -31 -15 19 -14 85 -17 102 -37 175
-22 86 -23 87 -73 195 -150 318 -450 556 -801 635 -58 13 -96 18 -145 20 -21
1 6 9 66 19 192 34 334 90 481 187 163 109 329 302 403 470 17 38 35 78 40 89
14 32 49 157 54 195 2 19 8 58 12 85 l8 50 7 -50 c4 -27 9 -63 12 -80z m-16
-2067 c-3 -8 -6 -5 -6 6 -1 11 2 17 5 13 3 -3 4 -12 1 -19z m7 -203 c6 -76 40
-206 76 -295 26 -66 72 -154 83 -158 4 -2 7 -8 7 -14 0 -22 93 -139 175 -221
175 -174 437 -299 679 -325 l71 -8 -65 -8 c-398 -49 -737 -287 -914 -642 -46
-93 -90 -220 -101 -295 -4 -24 -9 -51 -10 -59 -2 -8 -4 -35 -4 -59 -1 -56 -7
-50 -15 14 -13 106 -16 123 -40 206 -110 379 -410 681 -786 792 -85 25 -112
31 -205 43 -61 7 -71 14 -23 14 103 0 280 51 418 120 256 127 472 367 570 632
34 94 69 250 70 317 0 45 8 17 14 -54z m2331 9 c69 -544 496 -967 1035 -1022
l65 -7 -92 -13 c-457 -62 -828 -376 -966 -818 -14 -44 -29 -106 -32 -138 -8
-69 -23 -122 -25 -91 -2 35 -9 89 -14 110 -21 93 -29 123 -51 181 -149 396
-477 671 -893 749 -45 9 -86 14 -90 12 -4 -3 -16 -1 -27 4 -16 6 -13 8 15 9
138 5 329 63 469 141 317 178 549 520 587 867 7 70 11 74 19 16z"/>
</g>
</svg>
