<?xml version="1.0" standalone="no"?>
<!DOCTYPE svg PUBLIC "-//W3C//DTD SVG 20010904//EN"
 "http://www.w3.org/TR/2001/REC-SVG-20010904/DTD/svg10.dtd">
<svg version="1.0" xmlns="http://www.w3.org/2000/svg"
 width="1024.000000pt" height="1024.000000pt" viewBox="0 0 1024.000000 1024.000000"
 preserveAspectRatio="xMidYMid meet">
<metadata>
Created by potrace 1.14, written by Peter Selinger 2001-2017
</metadata>
<g transform="translate(0.000000,1024.000000) scale(0.100000,-0.100000)"
fill="#000000" stroke="none">
<path d="M735 10235 c-5 -2 -44 -11 -85 -20 -278 -63 -517 -284 -609 -563 -31
-96 -36 -136 -35 -287 1 -130 3 -147 33 -235 62 -183 163 -324 309 -432 100
-74 261 -142 367 -154 27 -4 51 -7 53 -9 1 -1 -35 -9 -80 -18 -345 -68 -611
-338 -677 -687 -16 -88 -7 -293 18 -378 95 -328 368 -568 702 -618 l54 -8 -50
-7 c-76 -11 -95 -15 -165 -40 -278 -97 -492 -341 -554 -635 -22 -104 -17 -279
10 -381 62 -233 210 -425 414 -536 96 -53 215 -93 288 -99 52 -4 37 -13 -44
-26 -97 -15 -248 -81 -334 -145 -150 -112 -256 -258 -309 -427 -30 -97 -33
-115 -37 -240 -7 -247 69 -443 239 -619 123 -127 262 -203 443 -241 49 -10 80
-19 69 -20 -59 -4 -154 -30 -236 -65 -238 -100 -418 -306 -491 -562 -32 -112
-32 -333 0 -446 86 -302 316 -528 617 -606 47 -12 82 -19 110 -21 11 -1 -20
-10 -69 -20 -177 -38 -305 -106 -434 -233 -114 -112 -185 -237 -227 -399 -20
-78 -23 -113 -20 -218 3 -136 6 -153 36 -250 85 -271 321 -492 602 -564 78
-20 112 -24 222 -21 145 3 157 5 267 41 268 88 503 350 554 619 5 22 9 43 10
48 1 4 2 19 3 34 1 35 8 27 15 -22 53 -333 293 -603 623 -697 113 -32 334 -32
446 0 304 87 528 316 607 620 6 24 13 59 15 78 5 54 12 50 20 -11 34 -277 267
-564 535 -660 155 -56 367 -69 515 -31 284 73 516 291 604 567 21 65 29 100
30 132 1 23 21 22 21 -1 0 -45 44 -180 85 -258 104 -202 287 -358 495 -423 97
-30 114 -33 250 -36 105 -3 140 0 218 20 162 42 287 113 399 227 77 78 113
128 156 215 48 95 56 118 77 219 10 49 19 80 20 69 2 -28 9 -63 21 -110 78
-301 304 -531 606 -617 113 -32 334 -32 446 0 256 73 462 253 562 491 35 82
61 177 65 236 1 11 10 -20 20 -69 73 -348 330 -603 675 -671 70 -14 268 -14
330 -1 419 91 704 459 682 881 -6 116 -10 134 -43 235 -78 234 -263 427 -494
518 -70 27 -168 52 -211 53 l-34 1 35 8 c19 5 52 11 72 14 52 8 154 44 213 75
213 110 368 302 436 536 33 114 34 334 1 448 -91 319 -342 551 -661 614 l-85
17 70 12 c171 29 331 113 452 236 132 134 203 266 237 442 16 82 17 238 3 316
-49 272 -235 507 -491 625 -76 34 -197 69 -234 67 -12 -1 -24 2 -27 6 -2 4 3
8 12 8 67 3 195 40 275 80 307 153 492 468 474 809 -6 116 -10 134 -43 235
-78 234 -263 427 -494 518 -70 27 -168 52 -211 53 l-34 1 35 8 c19 5 52 11 72
14 52 8 154 44 213 75 213 110 368 302 436 536 33 114 34 334 1 448 -91 319
-342 551 -661 614 l-85 17 70 12 c209 36 412 162 539 334 108 145 163 319 163
509 0 112 -11 180 -44 275 -120 344 -433 570 -794 573 -183 2 -337 -41 -478
-134 -211 -140 -346 -352 -381 -598 l-7 -50 -8 54 c-36 239 -173 456 -370 585
-157 103 -263 136 -446 142 -132 3 -197 -5 -295 -38 -298 -99 -512 -341 -572
-646 -9 -45 -17 -81 -18 -80 -2 2 -5 26 -9 53 -12 106 -80 267 -154 367 -108
146 -249 247 -432 309 -88 30 -105 32 -235 33 -151 1 -191 -4 -287 -35 -178
-59 -333 -175 -442 -332 -63 -92 -130 -266 -138 -360 -3 -35 -18 -35 -19 1 -3
112 -81 294 -179 418 -106 132 -282 244 -453 288 -78 20 -112 24 -222 21 -145
-3 -157 -5 -267 -41 -268 -88 -503 -350 -554 -619 -5 -22 -9 -43 -10 -47 -1
-5 -2 -20 -3 -35 -1 -35 -8 -27 -15 22 -53 333 -293 603 -623 697 -113 32
-334 32 -446 0 -304 -87 -528 -316 -607 -620 -6 -24 -13 -59 -15 -78 -5 -54
-12 -50 -20 11 -34 277 -267 564 -535 660 -51 19 -52 19 -140 38 -55 13 -254
21 -285 12z m1014 -1120 c96 -292 381 -534 675 -570 31 -4 55 -9 54 -11 -2 -1
-26 -6 -53 -9 -62 -8 -179 -47 -248 -82 -246 -124 -422 -366 -462 -636 -8 -51
-15 -60 -16 -21 -2 95 -61 259 -130 361 -141 209 -335 333 -589 378 -42 7 -51
15 -19 16 44 1 83 9 149 31 260 84 466 285 550 537 16 48 33 114 37 147 l7 59
16 -80 c9 -44 22 -98 29 -120z m1675 140 c14 -99 33 -160 77 -249 80 -161 219
-300 380 -382 59 -29 227 -86 247 -83 4 1 21 0 37 -1 27 -2 -9 -12 -120 -34
-120 -24 -294 -129 -399 -239 -96 -102 -191 -275 -212 -388 -3 -19 -7 -41 -9
-49 -2 -8 -4 -28 -4 -44 -1 -39 -8 -30 -16 21 -11 79 -35 156 -77 244 -22 49
-45 89 -49 89 -5 0 -9 5 -9 11 0 27 -111 145 -199 212 -109 83 -209 127 -356
157 -63 13 -79 19 -55 20 41 2 46 3 127 23 235 61 458 254 552 477 13 30 27
63 32 72 4 9 16 55 26 102 9 47 18 84 19 83 1 -1 4 -20 8 -42z m1704 13 c2
-18 7 -51 13 -73 6 -22 13 -47 14 -55 15 -70 82 -199 143 -277 138 -172 343
-294 537 -318 61 -8 65 -15 11 -20 -205 -20 -446 -170 -575 -358 -68 -100
-141 -282 -141 -354 0 -13 -4 -23 -10 -23 -5 0 -10 10 -10 23 0 12 -9 55 -20
95 -61 218 -210 408 -410 520 -90 51 -230 96 -315 102 -11 1 20 10 69 20 177
38 305 106 434 233 63 62 130 154 171 234 22 45 67 190 74 244 8 52 12 54 15
7z m1707 -8 c45 -254 169 -448 378 -589 102 -69 266 -128 361 -130 39 -1 30
-8 -21 -16 -270 -40 -512 -216 -636 -462 -35 -69 -74 -186 -82 -248 -3 -27 -8
-51 -9 -53 -2 -1 -7 23 -11 54 -14 116 -71 256 -146 359 -135 186 -325 306
-549 346 l-74 13 76 13 c310 52 567 277 666 583 22 66 30 105 31 149 1 32 9
23 16 -19z m1729 -110 c23 -79 89 -209 139 -275 134 -178 345 -305 556 -334
l56 -8 -50 -7 c-126 -19 -275 -79 -380 -154 -169 -120 -301 -331 -339 -539 -8
-43 -15 -69 -16 -58 -6 70 -38 181 -76 263 -119 259 -364 443 -649 488 -22 3
-41 7 -43 9 -1 1 23 5 54 9 104 12 242 67 343 135 189 128 322 334 363 558
l12 68 11 -65 c6 -36 15 -76 19 -90z m-1691 -1756 c37 -102 125 -242 198 -314
46 -46 127 -110 138 -110 6 0 11 -4 11 -9 0 -4 40 -27 89 -49 88 -42 165 -66
244 -77 51 -8 60 -15 21 -16 -16 0 -36 -2 -44 -4 -8 -2 -30 -6 -49 -9 -113
-21 -286 -116 -388 -212 -110 -105 -215 -279 -239 -399 -22 -111 -32 -147 -34
-120 -1 17 -2 33 -1 37 3 20 -54 188 -83 247 -112 222 -345 405 -568 447 -18
3 -40 7 -48 9 -8 2 -26 4 -40 5 -14 1 13 10 60 21 47 10 94 23 105 28 11 4 45
19 75 32 224 95 416 317 477 552 20 81 21 86 23 127 1 24 7 8 20 -55 10 -49
25 -108 33 -131z m-5159 161 c45 -285 229 -530 488 -649 82 -38 193 -70 263
-76 11 -1 -15 -8 -58 -16 -208 -38 -419 -170 -539 -339 -75 -105 -135 -254
-154 -380 l-7 -50 -8 56 c-37 267 -224 521 -469 637 -116 54 -132 60 -230 77
l-65 11 68 12 c224 41 430 174 558 363 68 101 123 239 135 343 4 31 8 55 9 54
2 -2 6 -21 9 -43z m1727 -90 c68 -271 270 -492 538 -589 70 -25 84 -29 166
-42 51 -8 58 -14 15 -14 -52 0 -185 -39 -264 -77 -170 -83 -308 -218 -392
-385 -39 -78 -84 -225 -84 -276 0 -45 -8 -37 -15 14 -34 273 -232 538 -489
654 -74 34 -200 70 -247 71 -33 1 -34 1 -7 9 15 4 45 11 67 14 135 19 321 118
435 232 94 94 201 275 221 374 1 3 5 25 10 50 5 25 10 48 11 53 1 4 3 17 4 30
2 17 4 16 7 -8 2 -16 13 -66 24 -110z m5124 -20 c93 -321 378 -570 699 -610
51 -7 59 -15 14 -15 -51 0 -198 -45 -276 -84 -167 -84 -302 -222 -385 -392
-38 -79 -77 -212 -77 -264 0 -43 -6 -36 -14 15 -13 82 -17 96 -42 166 -77 214
-230 384 -434 482 -76 36 -216 77 -266 77 -38 0 -27 7 22 14 22 4 55 11 73 16
17 5 32 8 34 8 7 -3 92 30 147 57 202 101 358 280 429 492 11 32 22 70 24 84
3 13 8 44 13 69 l8 45 7 -50 c3 -27 14 -77 24 -110z m-3435 102 c0 -41 40
-167 75 -239 127 -256 362 -430 640 -474 49 -7 57 -14 22 -15 -15 -1 -30 -2
-34 -3 -5 -1 -26 -5 -48 -10 -209 -40 -421 -193 -542 -391 -61 -101 -110 -236
-112 -312 -2 -42 -18 -24 -25 26 -9 68 -49 182 -90 255 -128 227 -326 372
-582 426 -49 10 -80 19 -69 20 59 4 154 30 236 65 189 79 340 223 434 413 35
72 75 198 75 239 0 13 5 23 10 23 6 0 10 -10 10 -23z m-1691 -1787 c59 -227
208 -418 416 -535 65 -36 189 -81 251 -91 59 -9 61 -20 6 -28 -27 -3 -82 -17
-122 -31 -291 -99 -512 -357 -564 -659 l-12 -70 -17 85 c-52 266 -219 482
-465 604 -72 35 -198 75 -239 75 -13 0 -23 5 -23 10 0 6 10 10 22 10 40 0 172
42 243 77 207 103 362 278 433 489 21 62 25 77 39 163 l7 46 7 -50 c3 -27 12
-70 18 -95z m-1715 45 c52 -263 219 -479 464 -600 72 -35 198 -75 239 -75 13
0 23 -4 23 -10 0 -5 -10 -10 -22 -10 -79 0 -265 -78 -373 -155 -164 -118 -303
-334 -331 -513 -3 -20 -9 -53 -14 -72 l-8 -35 -1 34 c-2 72 -50 220 -100 311
-52 96 -151 208 -241 275 -90 67 -247 135 -346 151 -59 9 -61 20 -6 28 103 13
255 79 352 151 59 43 159 147 196 202 73 110 129 249 141 350 3 30 7 52 8 51
2 -2 10 -39 19 -83z m5110 40 c52 -332 296 -606 618 -695 40 -11 83 -20 95
-20 40 0 24 -17 -22 -23 -24 -4 -72 -16 -107 -28 -302 -101 -515 -341 -575
-647 -9 -45 -17 -81 -18 -80 -2 2 -5 26 -9 53 -12 106 -80 267 -154 367 -43
58 -126 142 -182 183 -98 73 -286 151 -377 156 -47 3 -50 13 -5 17 44 3 197
49 245 73 249 126 424 357 469 620 7 37 13 67 14 66 1 -1 5 -20 8 -42z m1757
-184 c94 -234 285 -416 519 -496 40 -14 95 -28 122 -31 60 -8 52 -19 -23 -33
-139 -25 -306 -114 -414 -220 -145 -143 -227 -302 -254 -496 l-7 -50 -8 54
c-43 286 -234 539 -498 659 -55 25 -183 62 -215 62 -13 0 -23 5 -23 10 0 6 10
10 23 10 41 0 167 40 239 75 190 94 334 245 413 434 35 82 61 177 65 236 1 11
10 -20 20 -69 10 -49 29 -114 41 -145z m-3461 181 c0 -10 9 -53 20 -96 41
-157 157 -334 284 -436 124 -98 306 -176 419 -179 26 -1 40 -17 15 -18 -35 -1
-104 -16 -160 -34 -178 -59 -333 -175 -442 -332 -63 -92 -130 -266 -138 -360
-3 -32 -18 -37 -16 -4 2 37 -32 158 -67 234 -79 172 -206 310 -365 396 -96 53
-215 93 -287 99 -53 4 -38 13 43 26 45 7 115 29 172 54 160 70 281 173 377
322 55 86 76 133 106 234 20 71 19 65 19 92 0 11 5 20 10 20 6 0 10 -8 10 -18z
m-3415 -1698 c34 -273 232 -538 489 -654 74 -34 200 -70 247 -71 33 -1 34 -1
7 -9 -15 -4 -45 -11 -67 -14 -21 -3 -67 -15 -102 -26 -214 -73 -392 -227 -494
-430 -27 -55 -60 -140 -57 -147 0 -2 -3 -17 -8 -34 -5 -18 -12 -51 -16 -73 -7
-49 -14 -60 -14 -22 0 50 -41 190 -77 266 -98 204 -268 357 -482 434 -70 25
-84 29 -166 42 -51 8 -58 14 -15 14 57 0 191 41 280 86 154 78 290 211 369
364 44 84 91 233 91 288 0 45 8 37 15 -14z m1736 -130 c73 -229 232 -414 439
-512 116 -54 132 -60 230 -77 l65 -11 -68 -12 c-224 -41 -430 -174 -558 -363
-68 -101 -123 -239 -135 -343 -4 -31 -8 -55 -9 -54 -2 2 -6 21 -9 43 -45 285
-229 530 -488 649 -82 38 -193 70 -263 76 -11 1 15 8 58 16 208 38 419 170
539 339 75 105 135 254 154 380 l7 50 8 -56 c4 -31 18 -88 30 -125z m3384 126
c45 -254 169 -448 378 -589 102 -69 266 -128 361 -130 39 -1 30 -8 -21 -16
-270 -40 -512 -216 -636 -462 -35 -69 -74 -186 -82 -248 -3 -27 -8 -51 -9 -53
-2 -1 -7 23 -11 54 -14 116 -71 256 -146 359 -135 186 -325 306 -549 346 l-74
13 76 13 c310 52 567 277 666 583 22 66 30 105 31 149 1 32 9 23 16 -19z
m1729 -110 c23 -79 89 -209 139 -275 134 -178 345 -305 556 -334 l56 -8 -50
-7 c-126 -19 -275 -79 -380 -154 -169 -120 -301 -331 -339 -539 -8 -43 -15
-69 -16 -58 -6 70 -38 181 -76 263 -119 259 -364 443 -649 488 -22 3 -41 7
-43 9 -1 1 23 5 54 9 104 12 242 67 343 135 189 128 322 334 363 558 l12 68
11 -65 c6 -36 15 -76 19 -90z m-3409 -10 c30 -120 120 -266 232 -373 120 -116
296 -203 448 -222 61 -8 65 -15 11 -20 -205 -20 -446 -170 -575 -358 -68 -100
-141 -282 -141 -354 0 -13 -4 -23 -10 -23 -5 0 -10 10 -10 23 0 12 -9 55 -20
95 -90 324 -367 568 -701 618 l-54 8 50 7 c194 27 353 109 496 254 106 108
195 274 221 414 15 81 20 83 35 10 8 -35 16 -71 18 -79z m1718 -1746 c37 -102
125 -242 198 -314 46 -46 127 -110 138 -110 6 0 11 -4 11 -9 0 -4 40 -27 89
-49 88 -42 165 -66 244 -77 51 -8 60 -15 21 -16 -16 0 -36 -2 -44 -4 -8 -2
-30 -6 -49 -9 -113 -21 -286 -116 -388 -212 -110 -105 -215 -279 -239 -399
-22 -111 -32 -147 -34 -120 -1 17 -2 33 -1 37 3 20 -54 188 -83 247 -112 222
-345 405 -568 447 -18 3 -40 7 -48 9 -8 2 -26 4 -40 5 -14 1 13 10 60 21 47
10 94 23 105 28 11 4 45 19 75 32 224 95 416 317 477 552 20 81 21 86 23 127
1 24 7 8 20 -55 10 -49 25 -108 33 -131z m-5158 159 c11 -79 35 -156 77 -244
22 -49 45 -89 49 -89 5 0 9 -5 9 -11 0 -27 111 -145 199 -212 109 -83 209
-127 356 -157 63 -13 79 -19 55 -20 -41 -2 -46 -3 -127 -23 -235 -61 -457
-253 -552 -477 -13 -30 -28 -64 -32 -75 -5 -11 -18 -58 -28 -105 -11 -47 -20
-74 -21 -60 -1 14 -3 32 -5 40 -2 8 -6 30 -9 48 -42 223 -225 456 -447 568
-59 29 -227 86 -247 83 -4 -1 -20 0 -37 1 -27 2 9 12 120 34 120 24 294 129
399 239 96 102 191 275 212 388 3 19 7 41 9 49 2 8 4 28 4 44 1 39 8 30 16
-21z m1709 -9 c12 -100 68 -245 133 -340 136 -201 333 -325 583 -369 42 -7 51
-15 19 -16 -44 -1 -83 -9 -149 -31 -306 -99 -531 -356 -583 -666 l-13 -76 -13
74 c-40 224 -160 414 -346 549 -103 75 -243 132 -359 146 -31 4 -55 9 -54 11
2 1 26 6 53 9 208 27 442 175 567 359 78 113 143 287 147 390 2 33 8 14 15
-40z m5141 -99 c93 -321 378 -570 699 -610 51 -7 59 -15 14 -15 -51 0 -198
-45 -276 -84 -167 -84 -302 -222 -385 -392 -38 -79 -77 -212 -77 -264 0 -43
-6 -36 -14 15 -13 82 -17 96 -42 166 -77 214 -230 384 -434 482 -76 36 -216
77 -266 77 -38 0 -27 7 22 14 22 4 55 11 73 16 17 5 32 8 34 8 7 -3 92 30 147
57 202 101 358 280 429 492 11 32 22 70 24 84 3 13 8 44 13 69 l8 45 7 -50 c3
-27 14 -77 24 -110z m-3435 102 c0 -41 40 -167 75 -239 127 -256 362 -430 640
-474 49 -7 57 -14 22 -15 -15 -1 -30 -2 -34 -3 -5 -1 -26 -5 -48 -10 -209 -40
-421 -193 -542 -391 -61 -101 -110 -236 -112 -312 -1 -35 -21 -27 -21 8 0 73
-84 274 -155 369 -41 56 -125 139 -183 182 -100 74 -261 142 -367 154 -27 4
-51 7 -53 9 -1 1 35 9 80 18 306 60 546 273 647 575 12 35 24 83 28 107 6 46
23 62 23 22z"/>
</g>
</svg>
